<svg width="306" height="416" viewBox="0 0 306 416" fill="none" xmlns="http://www.w3.org/2000/svg">
<rect y="15.5" width="306" height="400" rx="38" fill="#FFFAFA"/>
<rect y="15.5" width="306" height="400" rx="38" fill="#FFFAFA"/>
<rect y="15.5" width="306" height="400" rx="38" fill="#A4790C"/>
<g filter="url(#filter0_d_14_73)">
<rect x="21" y="34.5" width="265" height="361" fill="#FFFAFA"/>
<rect x="21" y="34.5" width="265" height="361" fill="#FFFAFA"/>
<rect x="21" y="34.5" width="265" height="361" fill="#FFFAFA"/>
</g>
<g filter="url(#filter1_d_14_73)">
<path d="M93.5 0H216.5L244 49.5H62L93.5 0Z" fill="black" fill-opacity="0.2"/>
<path d="M93.5 0H216.5L244 49.5H62L93.5 0Z" fill="#9C9292"/>
</g>
<path d="M94.6045 121.118C91.4398 120.116 88.2325 119.494 85.6215 122.324C83.0771 125.083 80.7755 131.467 82.806 135.106C85.2782 139.537 92.5435 137.503 96.2133 136.402" stroke="black" stroke-width="2" stroke-linecap="round"/>
<path d="M104.66 119.911C100.078 124.951 108.883 136.286 115.028 133.743C118.722 132.215 118.527 126.853 117.196 123.866C115.488 120.034 112.401 119.509 108.682 119.509" stroke="black" stroke-width="2" stroke-linecap="round"/>
<path d="M125.173 118.704C122.807 119.493 124.001 126.199 124.414 127.598C126.024 133.057 132.403 134.833 137.374 132.469C146.893 127.944 133.229 113.188 129.196 119.911" stroke="black" stroke-width="2" stroke-linecap="round"/>
<path d="M149.709 115.084C152.763 119.249 154.912 124.811 156.949 129.564" stroke="black" stroke-width="2" stroke-linecap="round"/>
<path d="M84.5489 182.256C85.5932 179.645 92.7721 179.235 95.0067 179.038C97.4442 178.823 91.3525 175.605 90.9397 175.373C87.8548 173.643 84.0287 172.817 84.4148 177.876C84.8601 183.709 87.8106 186.561 92.9956 188.289" stroke="black" stroke-width="2" stroke-linecap="round"/>
<path d="M100.236 173.407C101.107 175.523 102.347 177.469 103.498 179.44C104.042 180.372 107.171 187.496 108.682 187.328C110.581 187.117 109.622 174.469 109.889 172.2" stroke="black" stroke-width="2" stroke-linecap="round"/>
<path d="M115.118 176.222C116.755 176.149 124.515 175.588 124.995 174.39C125.204 173.866 118.592 172.273 117.442 173.183C112.869 176.803 120.354 185.194 123.967 186.278" stroke="black" stroke-width="2" stroke-linecap="round"/>
<path d="M131.609 174.613C132.295 177.528 135.815 185.645 135.609 182.658C135.372 179.227 133.926 173.113 137.017 170.457C139.483 168.337 143.895 172.858 144.815 174.837C145.834 177.028 145.959 179.31 147.698 181.049" stroke="black" stroke-width="2" stroke-linecap="round"/>
<path d="M152.927 161.742C154.186 167.726 157.289 173.37 158.156 179.44" stroke="black" stroke-width="2" stroke-linecap="round"/>
<path d="M147.296 173.407C150.855 171.103 156.374 170.189 160.569 170.189" stroke="black" stroke-width="2" stroke-linecap="round"/>
<path d="M175.451 166.569C173.747 166.155 163.451 165.592 166.155 170.099C167.991 173.16 172.968 174.189 176.166 174.814C181.049 175.77 173.264 180.351 171.429 181.853" stroke="black" stroke-width="2" stroke-linecap="round"/>
<path d="M180.278 161.742C181.408 165.259 182.655 168.72 183.898 172.2" stroke="black" stroke-width="2" stroke-linecap="round"/>
<path d="M71.2756 231.327C68.8171 231.327 67.5226 230.709 64.9741 232.466C61.1859 235.079 58.9748 240.189 60.639 244.689C62.8684 250.718 68.9125 246.823 72.8845 245.404" stroke="black" stroke-width="2" stroke-linecap="round"/>
<path d="M79.32 230.924C79.2247 232.831 79.3055 234.514 80.348 236.243C81.777 238.613 87.1276 243.174 88.4818 238.209C89.3404 235.061 86.9243 230.12 83.3423 230.12" stroke="black" stroke-width="2" stroke-linecap="round"/>
<path d="M93.8 232.131C94.3546 233.24 96.9272 239.914 97.6658 239.84C97.8379 239.823 97.5972 236.309 97.5988 236.198C97.6262 234.191 98.0168 232.187 98.5373 230.254C99.9121 225.148 105.495 229.351 106.247 232.734C106.258 232.785 110.377 224.407 112.593 224.623C117.827 225.134 119.502 232.733 120.347 236.958" stroke="black" stroke-width="2" stroke-linecap="round"/>
<path d="M121.956 228.109C124 228.237 126.414 228.757 128.391 228.019C130.367 227.282 125.328 224.253 124.637 224.042C120.798 222.867 121.227 228.906 122.09 230.835C124.009 235.129 126.668 235.965 130.804 236.958" stroke="black" stroke-width="2" stroke-linecap="round"/>
<path d="M154.536 225.695C149.127 224.775 146.197 227.391 147.653 232.891C149.281 239.039 154.302 239.932 159.764 238.567" stroke="black" stroke-width="2" stroke-linecap="round"/>
<path d="M162.178 221.271C164.414 225.133 165.036 230.514 166.111 234.813C167.149 238.968 167.704 234.691 169.038 232.377C173.549 224.549 176.95 232.497 178.267 237.762" stroke="black" stroke-width="2" stroke-linecap="round"/>
<path d="M179.473 230.522C182.041 230.522 185.492 231.213 187.92 230.433C189.838 229.816 184.574 227.083 184.3 226.992C176.318 224.331 179.425 235.136 185.104 236.555" stroke="black" stroke-width="2" stroke-linecap="round"/>
<path d="M201.193 227.304C197.788 227.304 191.302 230.335 191.227 234.276C191.096 241.156 197.965 240.675 202.4 239.371" stroke="black" stroke-width="2" stroke-linecap="round"/>
<path d="M204.009 226.5C204.202 227.752 205.455 233.852 206.467 234.232C206.817 234.363 212.436 225.833 213.26 224.891" stroke="black" stroke-width="2" stroke-linecap="round"/>
<path d="M208.433 230.522C211.757 233.078 216.113 234.718 219.696 236.958" stroke="black" stroke-width="2" stroke-linecap="round"/>
<path d="M74.0911 264.711C74.9119 271.551 82.4917 276.472 85.6215 268.286C85.8759 267.621 86.4093 262.447 87.0516 263.303C89.2595 266.247 91.0866 269.016 93.8 271.549" stroke="black" stroke-width="2" stroke-linecap="round"/>
<path d="M102.649 258.678C101.592 259.523 98.3981 260.408 99.5652 262.387C101.129 265.039 107.375 263.721 109.956 264.532C113.449 265.63 107.793 271.708 105.062 270.342" stroke="black" stroke-width="2" stroke-linecap="round"/>
<path d="M137.642 256.667C136.848 260.439 139.682 262.972 142.603 265.069C143.749 265.891 146.281 267.044 147.206 265.158C149.374 260.739 143.237 258.388 140.056 258.678" stroke="black" stroke-width="2" stroke-linecap="round"/>
<path d="M150.916 256.264C152.748 261.762 163.214 270.86 163.787 260.331C163.923 257.815 165.145 260.715 165.887 261.761C167.421 263.924 168.725 265.467 171.027 266.722" stroke="black" stroke-width="2" stroke-linecap="round"/>
<path d="M177.462 249.829C178.007 256.369 182.323 262.384 184.702 268.331" stroke="black" stroke-width="2" stroke-linecap="round"/>
<path d="M170.624 261.091C176.291 258.825 183.467 258.276 189.529 258.276" stroke="black" stroke-width="2" stroke-linecap="round"/>
<path d="M207.629 253.047C207.686 254.518 208.264 255.735 208.836 257.069" stroke="black" stroke-width="2" stroke-linecap="round"/>
<path d="M209.238 264.711C209.361 266.061 209.873 267.376 210.042 268.733" stroke="black" stroke-width="2" stroke-linecap="round"/>
<path d="M216.478 250.633C218.025 251.263 219.055 252.399 220.232 253.583C222.153 255.515 226.586 258.744 226.31 261.873C226.14 263.801 225.641 265.638 225.327 267.527" stroke="black" stroke-width="2" stroke-linecap="round"/>
<path d="M187.92 180.647C187.694 182.679 187.24 180.955 186.713 183.06" stroke="black" stroke-width="2" stroke-linecap="round"/>
<path d="M61.0997 312.181C61.4222 315.084 68.2709 310.261 69.9515 310.559C71.4573 310.827 72.8299 311.814 74.2843 312.261C75.8159 312.731 77.3695 312.42 78.9362 312.42C82.0616 312.42 84.7697 314.046 87.974 314.095C91.9028 314.155 95.2627 313.609 99.0853 312.686C103.208 311.691 106.895 313.814 110.941 313.856C112.854 313.875 114.769 313.856 116.682 313.856C119.627 313.856 122.223 313.138 125.109 312.699C127.938 312.27 130.615 313.324 133.429 313.324C135.688 313.324 137.285 312.793 139.49 313.483C141.999 314.269 143.457 314.767 146.055 314.148C148.987 313.45 151.561 314.717 154.442 315.211C156.686 315.596 158.912 315.246 161.181 315.783C163.272 316.277 164.774 316.676 166.803 315.916C169.438 314.927 172.132 316.239 174.817 315.344C177.709 314.38 180.666 314.62 183.536 313.723C184.862 313.308 185.884 312.245 187.204 311.849C188.724 311.393 190.205 311.941 191.697 312.128C194 312.416 196.316 310.919 198.541 311.596C201 312.344 202.552 312.595 205.12 312.234C208.33 311.784 212.042 312.682 215.261 312.925C217.786 313.116 220.326 314.514 222.651 315.411C225.908 316.666 229.419 317.277 232.872 317.683" stroke="black" stroke-width="2" stroke-linecap="round"/>
<path d="M66.363 332.277C69.0843 334.789 72.5642 333.509 75.773 333.765C79.7848 334.086 83.0034 336.124 87.1766 335.214C89.2123 334.77 91.0778 333.851 93.1442 333.486C94.9844 333.162 96.6719 333.424 98.5138 333.566C102.347 333.861 106.04 332.063 109.851 332.33C113.883 332.613 117.549 334.289 121.68 333.978C126.372 333.625 130.783 332.166 135.502 333.127C137.352 333.504 139.077 333.964 140.992 333.792C142.894 333.621 144.734 333.061 146.64 332.888C148.501 332.719 150.26 332.861 152.103 333.127C155.382 333.602 158.139 333.18 161.34 332.516C163.155 332.14 164.996 332.004 166.763 332.676C168.698 333.411 170.393 334.728 172.425 335.227C173.714 335.544 175.135 335.386 176.412 335.094C177.998 334.732 179.423 334.74 181.037 334.643C184.431 334.437 187.411 332.475 190.74 332.29C193.6 332.131 196.239 333.541 199.113 333.127C202.213 332.681 204.602 331.869 207.725 332.862C209.175 333.322 210.453 333.845 212.005 333.845C213.544 333.845 215.031 333.4 216.577 333.486C217.952 333.563 219.042 334.713 220.192 335.36C221.985 336.369 223.857 337.008 225.934 337.008C228.003 337.008 229.963 336.574 232.048 336.703C233.998 336.823 235.943 336.822 237.896 336.822" stroke="black" stroke-width="2" stroke-linecap="round"/>
<path d="M68.2769 355.244C69.0607 356.615 70.2774 358.599 72.1046 358.54C73.3657 358.499 74.2043 357.545 75.2014 356.931C77.3913 355.584 79.4075 356.357 81.8336 356.174C85.2033 355.92 87.662 352.527 90.8981 352.612C92.53 352.655 93.8223 354.042 95.4037 354.38C98.3078 355 101.188 354.206 104.056 354.632C106.091 354.934 107.899 355.975 109.984 356.147C111.596 356.281 112.821 355.696 114.33 355.257C118.278 354.108 120.664 355.562 124.405 356.546C127.937 357.476 131.502 356.863 134.997 358.008C136.906 358.633 138.401 359.826 140.407 360.254C142.691 360.742 144.819 360.601 147.119 360.268C151.586 359.62 155.216 359.082 159.705 360.015C162.092 360.511 164.29 360.306 166.577 359.417C167.599 359.019 168.541 358.791 169.647 358.845C172.292 358.974 174.207 359.169 176.678 357.981C179.865 356.449 182.132 356.371 185.583 357.211C189.293 358.113 192.004 356.981 195.524 355.975C198.003 355.266 200.226 356.892 202.741 356.892C205.612 356.892 208.243 355.167 211.075 355.244C214.57 355.338 218.542 358.147 221.628 359.55" stroke="black" stroke-width="2" stroke-linecap="round"/>
<path d="M48.221 81.8628C50.6497 81.8628 52.3938 80.2315 54.5022 79.1997C56.3565 78.2923 58.3794 79.3713 60.2507 79.6773C62.4183 80.0317 64.6244 79.9505 66.7706 80.4578C69.4215 81.0844 71.8032 81.8628 74.5578 81.8628C77.4745 81.8628 80.091 81.4441 82.9327 80.8159C85.2983 80.293 87.7908 80.5914 90.1964 80.5313C92.7972 80.4663 95.2804 79.5959 97.8642 79.4201C100.533 79.2386 103.159 80.1807 105.817 80.0078C110.031 79.7337 113.542 77.6163 117.461 80.0997C118.706 80.8887 119.444 81.9497 121.106 81.7342C122.987 81.4904 124.117 80.6736 126.019 81.5414C127.668 82.2936 129.146 82.4398 130.923 81.9914C132.766 81.526 134.663 81.55 136.497 81.0914C138.259 80.651 139.873 80.0504 141.704 79.916C143.48 79.7856 145.182 80.1841 146.975 79.8425C148.816 79.4918 150.328 79.7973 152.126 80.2925C154.539 80.9569 156.545 80.2804 158.876 79.6589C163.56 78.4097 168.479 77.487 173.348 77.7672C177.607 78.0123 181.858 79.009 186.113 79.1079C189.076 79.1768 191.786 78.4296 194.497 77.3264C196.741 76.4129 198.494 76.93 200.805 77.2346C202.809 77.4986 204.825 76.8663 206.591 75.9306C207.876 75.2493 208.762 74.8635 210.218 74.9297C211.279 74.9779 212.242 75.4028 213.313 75.4164C214.269 75.4285 215.211 75.2694 216.159 75.2694C217.51 75.2694 218.733 76.0924 219.906 76.6652C222.412 77.8891 225.018 76.8435 227.574 78.0702C230.384 79.4191 233.648 79.1525 236.16 81.0363" stroke="black" stroke-width="2" stroke-linecap="round"/>
<path d="M50.2045 99.7145C50.9307 100.985 53.0931 103.403 54.6124 103.48C56.8213 103.591 59.4678 101.793 61.518 101.138C65.8463 99.7546 70.4265 99.8593 74.8057 98.6493C76.17 98.2723 77.4815 97.966 78.9013 98.1626C81.001 98.4533 82.8758 99.4501 85.0447 99.4757C87.108 99.5002 89.0374 98.4698 91.1055 98.8605C93.5015 99.3131 95.6886 100.856 98.2131 100.431C100.85 99.9862 103.227 98.0796 105.945 98.135C107.995 98.1769 110.026 99.0219 112.006 99.4574C114.24 99.9487 115.956 99.7852 118.14 99.3105C119.831 98.9429 121.569 98.7884 123.292 99.0074C124.719 99.1888 126.061 99.6977 127.507 99.8063C129.838 99.9814 131.973 99.1888 134.183 98.5575C136.726 97.8308 139.155 97.5536 141.759 98.0983C143.99 98.5651 145.839 99.0498 148.104 98.4473C149.967 97.9519 151.894 96.7956 153.862 96.8127C155.739 96.829 157.456 97.8864 159.262 98.2911C162.404 98.9955 165.225 96.9039 168.316 98.3922C169.844 99.1279 171.239 99.8745 173.018 99.4298C174.539 99.0496 175.749 97.8458 177.297 97.5657C180.099 97.0586 182.816 98.3745 185.589 97.5657C186.855 97.1965 188.178 96.7232 189.51 96.7392C191.019 96.7574 192.498 97.4695 193.927 97.8779C196.75 98.6845 199.877 97.1321 202.715 96.9412C204.666 96.8101 206.537 96.8106 208.464 96.3995C210.143 96.0412 211.445 95.422 213.184 95.7842C215.632 96.2942 217.761 97.6867 220.328 97.731C223.72 97.7895 226.304 99.0878 229.217 100.706" stroke="black" stroke-width="2" stroke-linecap="round"/>
<defs>
<filter id="filter0_d_14_73" x="17" y="34.5" width="273" height="369" filterUnits="userSpaceOnUse" color-interpolation-filters="sRGB">
<feFlood flood-opacity="0" result="BackgroundImageFix"/>
<feColorMatrix in="SourceAlpha" type="matrix" values="0 0 0 0 0 0 0 0 0 0 0 0 0 0 0 0 0 0 127 0" result="hardAlpha"/>
<feOffset dy="4"/>
<feGaussianBlur stdDeviation="2"/>
<feComposite in2="hardAlpha" operator="out"/>
<feColorMatrix type="matrix" values="0 0 0 0 0 0 0 0 0 0 0 0 0 0 0 0 0 0 0.25 0"/>
<feBlend mode="normal" in2="BackgroundImageFix" result="effect1_dropShadow_14_73"/>
<feBlend mode="normal" in="SourceGraphic" in2="effect1_dropShadow_14_73" result="shape"/>
</filter>
<filter id="filter1_d_14_73" x="58" y="0" width="190" height="57.5" filterUnits="userSpaceOnUse" color-interpolation-filters="sRGB">
<feFlood flood-opacity="0" result="BackgroundImageFix"/>
<feColorMatrix in="SourceAlpha" type="matrix" values="0 0 0 0 0 0 0 0 0 0 0 0 0 0 0 0 0 0 127 0" result="hardAlpha"/>
<feOffset dy="4"/>
<feGaussianBlur stdDeviation="2"/>
<feComposite in2="hardAlpha" operator="out"/>
<feColorMatrix type="matrix" values="0 0 0 0 0 0 0 0 0 0 0 0 0 0 0 0 0 0 0.25 0"/>
<feBlend mode="normal" in2="BackgroundImageFix" result="effect1_dropShadow_14_73"/>
<feBlend mode="normal" in="SourceGraphic" in2="effect1_dropShadow_14_73" result="shape"/>
</filter>
</defs>
</svg>
